<svg width="144" height="24" viewBox="0 0 144 24" fill="none" xmlns="http://www.w3.org/2000/svg">
<g filter="url(#filter0_d_46_32)">
<ellipse cx="72" cy="8" rx="68" ry="8" fill="#E8C7FE"/>
<path d="M139.001 7.99117C139.001 7.99117 139.001 7.99268 139 7.99565C139 7.99268 139.001 7.99118 139.001 7.99117ZM138.892 7.83549C138.971 7.92652 138.993 7.98016 138.999 8.00001C138.993 8.01984 138.971 8.07346 138.892 8.16451C138.76 8.31686 138.519 8.51579 138.12 8.74535C137.322 9.20431 136.08 9.68007 134.388 10.1505C131.021 11.0872 126.101 11.942 119.966 12.6637C107.71 14.1056 90.7513 15 72 15C53.2487 15 36.2895 14.1056 24.0336 12.6637C17.8988 11.942 12.9791 11.0872 9.61175 10.1505C7.92033 9.68007 6.67825 9.20431 5.87994 8.74535C5.48067 8.51579 5.23956 8.31686 5.10805 8.16451C5.02945 8.07345 5.00689 8.01983 5.00103 8C5.00689 7.98017 5.02945 7.92655 5.10805 7.83549C5.23956 7.68314 5.48067 7.48421 5.87994 7.25465C6.67825 6.79569 7.92033 6.31993 9.61175 5.84946C12.9791 4.91284 17.8988 4.05803 24.0336 3.3363C36.2895 1.89442 53.2487 1 72 1C90.7513 1 107.71 1.89442 119.966 3.3363C126.101 4.05803 131.021 4.91284 134.388 5.84946C136.08 6.31993 137.322 6.79569 138.12 7.25465C138.519 7.48421 138.76 7.68314 138.892 7.83549ZM4.99919 7.99117C4.99932 7.99118 4.99968 7.9927 4.99987 7.99568C4.99916 7.99265 4.99906 7.99116 4.99919 7.99117ZM4.99919 8.00883C4.99906 8.00884 4.99916 8.00735 4.99987 8.00432C4.99968 8.0073 4.99932 8.00881 4.99919 8.00883ZM139 8.00437C139.001 8.00729 139.001 8.00876 139.001 8.00883C139.001 8.0089 139 8.00743 139 8.00437Z" stroke="black" stroke-width="2"/>
</g>
<defs>
<filter id="filter0_d_46_32" x="0" y="0" width="144" height="24" filterUnits="userSpaceOnUse" color-interpolation-filters="sRGB">
<feFlood flood-opacity="0" result="BackgroundImageFix"/>
<feColorMatrix in="SourceAlpha" type="matrix" values="0 0 0 0 0 0 0 0 0 0 0 0 0 0 0 0 0 0 127 0" result="hardAlpha"/>
<feOffset dy="4"/>
<feGaussianBlur stdDeviation="2"/>
<feComposite in2="hardAlpha" operator="out"/>
<feColorMatrix type="matrix" values="0 0 0 0 0 0 0 0 0 0 0 0 0 0 0 0 0 0 0.25 0"/>
<feBlend mode="normal" in2="BackgroundImageFix" result="effect1_dropShadow_46_32"/>
<feBlend mode="normal" in="SourceGraphic" in2="effect1_dropShadow_46_32" result="shape"/>
</filter>
</defs>
</svg>
